REM DIRINDEX 1\2,1\3,1\4,1\5,1\6
REM DIRNAME cjc129,folder01,folder02,folder03,folder04,folder05
TITLE ""
FILE "DISC4Track02.mp3" MP3
  TRACK 01 AUDIO
    TITLE "0:"
    INDEX 01 00:00:00
  TRACK 02 AUDIO
    TITLE "3:cjc129_2966"
    INDEX 01 00:00:07
  TRACK 03 AUDIO
    TITLE "0:"
    INDEX 01 00:03:21
  TRACK 04 AUDIO
    TITLE "5:cjc129_2967"
    INDEX 01 00:03:51
  TRACK 05 AUDIO
    TITLE "0:"
    INDEX 01 00:05:54
  TRACK 06 AUDIO
    TITLE "4:cjc129_2968"
    INDEX 01 00:06:43
  TRACK 07 AUDIO
    TITLE "0:"
    INDEX 01 00:09:55
  TRACK 08 AUDIO
    TITLE "6:cjc129_2969"
    INDEX 01 00:10:12
  TRACK 09 AUDIO
    TITLE "0:"
    INDEX 01 00:14:60
  TRACK 10 AUDIO
    TITLE "2:cjc129_2970"
    INDEX 01 00:16:34
  TRACK 11 AUDIO
    TITLE "0:"
    INDEX 01 00:24:04
  TRACK 12 AUDIO
    TITLE "3:cjc129_2971"
    INDEX 01 00:25:17
  TRACK 13 AUDIO
    TITLE "0:"
    INDEX 01 00:27:30
  TRACK 14 AUDIO
    TITLE "5:cjc129_2972"
    INDEX 01 00:27:59
  TRACK 15 AUDIO
    TITLE "0:"
    INDEX 01 00:32:60
  TRACK 16 AUDIO
    TITLE "4:cjc129_2973"
    INDEX 01 00:33:54
  TRACK 17 AUDIO
    TITLE "0:"
    INDEX 01 00:35:66
  TRACK 18 AUDIO
    TITLE "6:cjc129_2974"
    INDEX 01 00:36:23
  TRACK 19 AUDIO
    TITLE "0:"
    INDEX 01 00:40:66
  TRACK 20 AUDIO
    TITLE "3:cjc129_2975"
    INDEX 01 00:42:39
  TRACK 21 AUDIO
    TITLE "0:"
    INDEX 01 00:43:72
  TRACK 22 AUDIO
    TITLE "5:cjc129_2976"
    INDEX 01 00:44:28
  TRACK 23 AUDIO
    TITLE "0:"
    INDEX 01 00:46:27
  TRACK 24 AUDIO
    TITLE "4:cjc129_2977"
    INDEX 01 00:47:17
  TRACK 25 AUDIO
    TITLE "0:"
    INDEX 01 00:48:51
  TRACK 26 AUDIO
    TITLE "6:cjc129_2978"
    INDEX 01 00:49:08
  TRACK 27 AUDIO
    TITLE "0:"
    INDEX 01 00:53:39
  TRACK 28 AUDIO
    TITLE "3:cjc129_2979"
    INDEX 01 00:55:14
  TRACK 29 AUDIO
    TITLE "0:"
    INDEX 01 00:56:57
  TRACK 30 AUDIO
    TITLE "5:cjc129_2980"
    INDEX 01 00:57:15
  TRACK 31 AUDIO
    TITLE "0:"
    INDEX 01 01:01:21
  TRACK 32 AUDIO
    TITLE "4:cjc129_2981"
    INDEX 01 01:02:14
  TRACK 33 AUDIO
    TITLE "0:"
    INDEX 01 01:03:57
  TRACK 34 AUDIO
    TITLE "6:cjc129_2982"
    INDEX 01 01:04:15
  TRACK 35 AUDIO
    TITLE "0:"
    INDEX 01 01:09:10
  TRACK 36 AUDIO
    TITLE "3:cjc129_2983"
    INDEX 01 01:10:59
  TRACK 37 AUDIO
    TITLE "0:"
    INDEX 01 01:12:15
  TRACK 38 AUDIO
    TITLE "5:cjc129_2984"
    INDEX 01 01:12:46
  TRACK 39 AUDIO
    TITLE "0:"
    INDEX 01 01:14:39
  TRACK 40 AUDIO
    TITLE "4:cjc129_2985"
    INDEX 01 01:15:27
  TRACK 41 AUDIO
    TITLE "0:"
    INDEX 01 01:16:54
  TRACK 42 AUDIO
    TITLE "6:cjc129_2986"
    INDEX 01 01:17:14
  TRACK 43 AUDIO
    TITLE "0:"
    INDEX 01 01:20:63
  TRACK 44 AUDIO
    TITLE "3:cjc129_2987"
    INDEX 01 01:22:41
  TRACK 45 AUDIO
    TITLE "0:"
    INDEX 01 01:24:00
  TRACK 46 AUDIO
    TITLE "5:cjc129_2988"
    INDEX 01 01:24:32
  TRACK 47 AUDIO
    TITLE "0:"
    INDEX 01 01:26:30
  TRACK 48 AUDIO
    TITLE "4:cjc129_2989"
    INDEX 01 01:27:22
  TRACK 49 AUDIO
    TITLE "0:"
    INDEX 01 01:28:57
  TRACK 50 AUDIO
    TITLE "6:cjc129_2990"
    INDEX 01 01:29:11
  TRACK 51 AUDIO
    TITLE "0:"
    INDEX 01 01:33:66
  TRACK 52 AUDIO
    TITLE "3:cjc129_2991"
    INDEX 01 01:35:41
  TRACK 53 AUDIO
    TITLE "0:"
    INDEX 01 01:37:15
  TRACK 54 AUDIO
    TITLE "5:cjc129_2992"
    INDEX 01 01:37:48
  TRACK 55 AUDIO
    TITLE "0:"
    INDEX 01 01:41:48
  TRACK 56 AUDIO
    TITLE "4:cjc129_2993"
    INDEX 01 01:42:39
  TRACK 57 AUDIO
    TITLE "0:"
    INDEX 01 01:44:15
  TRACK 58 AUDIO
    TITLE "6:cjc129_2994"
    INDEX 01 01:44:46
  TRACK 59 AUDIO
    TITLE "0:"
    INDEX 01 01:50:27
